<?xml version="1.0" encoding="utf-8"?>
<!-- Generator: Adobe Illustrator 22.0.1, SVG Export Plug-In . SVG Version: 6.00 Build 0)  -->
<svg version="1.1" id="Layer_1" xmlns="http://www.w3.org/2000/svg" xmlns:xlink="http://www.w3.org/1999/xlink" x="0px" y="0px"
	 viewBox="0 0 28.7 33.2" style="enable-background:new 0 0 28.7 33.2;" xml:space="preserve">
<style type="text/css">
	.st0{fill:none;}
	.st1{fill:#FFFFFF;}
	.st2{fill:none;stroke:#FFFFFF;stroke-width:0;stroke-linecap:round;stroke-linejoin:round;}
</style>
<g>
	<path class="st0" d="M2.7,9.9v13.4L14.4,30l7.9-4.5l0,0l3.7-2.2l0,0V9.9L14.4,3.2L2.7,9.9z M8,13.1L8,13.1L8,13.1L8,13.1z
		 M11.3,23.3h1.9H11.3z M13.7,13.3L13.7,13.3l2.3,3.3l-2.8,4h0h0.4h5.1l1.9,2.7h-7.5h-1.9H8l4.7-6.7L10.9,14l0,0l-1-1.4h0l0,0L8,9.9
		h12.7l-1.9,2.7h-5.5L13.7,13.3z"/>
	<polygon class="st1" points="20.7,9.9 8,9.9 10,12.7 9.9,12.6 9.9,12.6 10.9,14 10.9,14 12.7,16.6 8,23.3 11.3,23.3 13.2,23.3 
		20.7,23.3 18.8,20.5 13.7,20.5 13.3,20.5 13.3,20.5 16,16.6 13.7,13.3 13.7,13.3 13.3,12.6 18.8,12.6 	"/>
	<path class="st1" d="M0,8.3v16.6l14.4,8.3l14.4-8.3V8.3L14.4,0L0,8.3z M26,23.3L26,23.3l-3.7,2.2l0,0L14.4,30L2.7,23.3V9.9
		l11.6-6.7L26,9.9V23.3z"/>
	<polygon class="st1" points="8,13.1 8,13.1 8,13.1 	"/>
</g>
</svg>
