<svg xmlns="http://www.w3.org/2000/svg" viewBox="0 0 32 32"><defs><style>.cls-1{fill:none;stroke:#fff;stroke-miterlimit:10;stroke-width:1.56px;}.cls-2{fill:#fff;}</style></defs><g id="Page-1"><g id="Monogram"><rect id="Rectangle-path" class="cls-1" x="1" y="1.08" width="29.92" height="29.92"/><path id="Shape" class="cls-2" d="M8.14,11.09a.78.78,0,0,0-.25-.66L6,8.17V7.83h5.83l4.5,9.88,4-9.88h5.56v.34l-1.6,1.54a.47.47,0,0,0-.18.45v11.3a.47.47,0,0,0,.18.45l1.57,1.54v.34H17.94v-.34l1.62-1.58c.16-.16.16-.21.16-.45V12.29L15.21,23.75H14.6L9.34,12.29V20a1.06,1.06,0,0,0,.29.88l2.11,2.56v.34h-6v-.34l2.11-2.56A1,1,0,0,0,8.14,20Z"/></g></g></svg>