<?xml version="1.0" encoding="utf-8"?>
<!-- Generator: Adobe Illustrator 22.0.1, SVG Export Plug-In . SVG Version: 6.00 Build 0)  -->
<svg version="1.1" id="Layer_1" xmlns="http://www.w3.org/2000/svg" xmlns:xlink="http://www.w3.org/1999/xlink" x="0px" y="0px"
	 viewBox="0 0 29.5 26.2" style="enable-background:new 0 0 29.5 26.2;" xml:space="preserve">
<style type="text/css">
	.st0{fill:none;}
	.st1{fill:#FFFFFF;}
	.st2{fill:none;stroke:#FFFFFF;stroke-width:0;stroke-linecap:round;stroke-linejoin:round;}
</style>
<g>
	<path class="st1" d="M13.6,7.1c0-0.5,0.1-1.1,0.1-1.6C13.8,4.3,14,3,14.7,1.9C15.3,0.6,16.4,0,17.8,0c1.1,0,1.9,0.5,2.6,1.3
		c0.2,0.3,0.5,0.5,0.7,0.8c0.1,0.1,0.2,0.2,0.4,0.2c0,0,0.1,0.1,0.1,0.1c0,0.7,0,1.4,0,2.2c-0.5,0-0.9-0.1-1.3-0.3
		c-0.5-0.3-0.9-0.7-1.3-1.1c-0.1-0.1-0.2-0.2-0.3-0.4c-0.3-0.5-0.8-0.6-1.4-0.5c-0.2,0-0.4,0.2-0.5,0.4c-0.4,0.5-0.5,1.1-0.6,1.7
		C16.1,5.3,16,6.2,16,7.1c0,0,0,0,0,0.1c0.4,0,0.9,0.1,1.3,0.1c1.9,0.3,3.8,0.8,5.5,1.7c0.1,0.1,0.2,0.1,0.3,0
		c0.7-0.5,1.5-0.8,2.4-0.8c2.1-0.1,3.7,1.4,3.9,3.2c0.2,1.4-0.2,2.6-1.2,3.7c-0.1,0.1-0.1,0.2-0.1,0.3c0.4,2-0.1,3.9-1.3,5.6
		c-1.1,1.6-2.6,2.7-4.3,3.5c-1.7,0.9-3.6,1.4-5.5,1.6c-1.3,0.2-2.6,0.2-3.9,0.1c-3-0.3-5.8-1.1-8.2-2.9c-1.4-1-2.6-2.3-3.3-4
		c-0.5-1.2-0.6-2.5-0.4-3.8c0-0.2,0-0.3-0.1-0.4c-1.3-1.4-1.6-3.4-0.7-5c0.6-1.1,1.6-1.7,2.9-1.8c1.1-0.1,2.1,0.2,3,0.8
		c0.1,0.1,0.2,0.1,0.3,0c1.7-0.9,3.4-1.4,5.3-1.7C12.5,7.2,13.1,7.2,13.6,7.1z M15.3,8.9c-2.7,0-4.8,0.4-6.8,1.2
		c-1.6,0.7-3.1,1.6-4.2,3c-0.8,1-1.3,2.1-1.3,3.4c0,1.4,0.5,2.6,1.4,3.7c1,1.2,2.3,2.1,3.8,2.8c2.4,1.1,4.9,1.5,7.5,1.3
		c1.9-0.1,3.8-0.5,5.6-1.3c1.5-0.7,2.8-1.6,3.9-2.8c1.8-2.2,1.8-4.8,0.1-7c-0.9-1.1-2-1.9-3.3-2.6C19.7,9.4,17.3,9,15.3,8.9z
		 M4.8,10.2c-1-0.4-2-0.2-2.5,0.5c-0.5,0.7-0.5,1.9-0.1,2.4C2.8,12,3.7,11,4.8,10.2z M27.4,13.2c0.5-0.9,0.3-2.1-0.3-2.7
		c-0.6-0.6-1.6-0.7-2.4-0.3C25.8,11,26.7,12,27.4,13.2z"/>
	<path class="st1" d="M21.9,3.4c0-1.8,1.4-3.2,3.2-3.2c1.8,0,3.3,1.5,3.2,3.2c0,1.8-1.5,3.2-3.2,3.2C23.3,6.7,21.9,5.2,21.9,3.4z
		 M25.1,5.5c1.2,0,2.1-0.9,2.1-2.1c0-1.1-0.9-2-2.1-2C24,1.4,23,2.3,23,3.5C23,4.6,24,5.5,25.1,5.5z"/>
	<path class="st1" d="M19.4,17c-1.2,0-2.1-0.9-2.1-2.1c0-1.2,0.9-2.1,2.1-2.1c1.1,0,2.1,0.9,2.1,2.1C21.5,16.1,20.5,17,19.4,17z"/>
	<path class="st1" d="M8.1,14.9c0-1.2,0.9-2.1,2.1-2.1c1.2,0,2.1,1,2.1,2.1c0,1.2-0.9,2.1-2.1,2.1C9,17,8.1,16.1,8.1,14.9z"/>
	<path class="st1" d="M9.1,19.9c1.8,1.1,3.7,1.4,5.7,1.4c2,0,3.9-0.4,5.7-1.4c-0.1,0.2-0.2,0.3-0.3,0.5c-0.9,1.2-2.1,1.9-3.6,2.2
		c-2.2,0.5-4.2,0.2-6-1c-0.5-0.4-1-0.8-1.4-1.4C9.2,20.2,9.1,20.1,9.1,19.9z"/>
</g>
</svg>
