<?xml version="1.0" encoding="utf-8"?>
<!-- Generator: Adobe Illustrator 22.0.1, SVG Export Plug-In . SVG Version: 6.00 Build 0)  -->
<svg version="1.1" id="Layer_1" xmlns="http://www.w3.org/2000/svg" xmlns:xlink="http://www.w3.org/1999/xlink" x="0px" y="0px"
	 viewBox="0 0 39.5 25.6" style="enable-background:new 0 0 39.5 25.6;" xml:space="preserve">
<style type="text/css">
	.st0{fill:none;}
	.st1{fill:#FFFFFF;}
	.st2{fill:none;stroke:#FFFFFF;stroke-width:0;stroke-linecap:round;stroke-linejoin:round;}
</style>
<g>
	<path class="st1" d="M38.6,0.1L27.4,0c-0.5,0-0.9,0.4-0.9,0.9l-0.1,7.7c0,0.5,0.4,0.9,0.9,0.9l11.2,0.1c0.5,0,0.9-0.4,0.9-0.9
		L39.5,1C39.5,0.5,39.1,0.1,38.6,0.1z M31.9,7.6l-1.2-2.2l-0.5,0l0,2.2l-1.1,0l0-5.7l1.5,0c0.7,0,1.2,0.1,1.5,0.4
		c0.4,0.3,0.5,0.7,0.5,1.3c0,0.7-0.3,1.2-0.9,1.5l1.5,2.5L31.9,7.6z M37.2,5.5c0,0.7-0.2,1.2-0.5,1.6c-0.3,0.4-0.8,0.6-1.5,0.6
		c0,0,0,0,0,0c-0.9,0-1.9-0.4-1.9-2.2l0-3.6l1.1,0l0,3.5c0,1,0.5,1.2,0.9,1.2h0c0.4,0,0.8-0.1,0.8-1.2l0-3.5l1.1,0L37.2,5.5z
		 M31.3,3.1c-0.1-0.1-0.4-0.2-0.8-0.2l-0.3,0l0,1.5l0.4,0c0.4,0,0.6-0.1,0.8-0.2c0.1-0.1,0.2-0.3,0.2-0.6
		C31.5,3.4,31.4,3.2,31.3,3.1z"/>
	<path class="st1" d="M23.1,5.2C23.1,5.2,23.1,5.2,23.1,5.2c-0.3-0.5-0.7-0.6-1.2-0.4c-0.7,0.3-1.5,0.6-2.2,0.9
		c-6.3,2.5-12.6,5-18.9,7.5c-0.2,0.1-0.5,0.2-0.6,0.4c0,0,0,0,0,0c0,0-0.4,0.7,0.1,1.1c0,0,0,0,0,0c0.2,0.2,0.4,0.3,0.7,0.4
		c0,0,0.1,0,0.1,0c0,0,0,0,0,0c1.7,0.6,3.3,1.3,5,1.9c0.2,0.1,0.3,0.2,0.3,0.3c0.5,1.9,1,3.7,1.5,5.6c0.2,0.9,0.9,1.1,1.6,0.6
		c0.9-0.7,1.8-1.3,2.8-2c0.2-0.1,0.3-0.1,0.5,0c1.8,1.3,3.7,2.5,5.5,3.7c0.5,0.3,1,0.3,1.3-0.1c0.1-0.2,0.2-0.4,0.2-0.6
		c0.5-2.4,0.9-4.7,1.4-7.1c0.7-3.8,1.4-7.6,2.2-11.3c0,0,0,0,0,0C23.2,5.6,23.1,5.3,23.1,5.2z M7.9,16.6c-0.1-0.5-0.4-0.9-0.9-1.1
		c-1.1-0.4-2.1-0.8-3.2-1.2c-0.1,0-0.2-0.1-0.4-0.2c4.9-2,9.8-3.9,14.7-5.8c0,0,0,0,0,0c0,0-0.1,0.1-0.1,0.1c-3.1,3-6.2,6-9.3,9
		c-0.2,0.2-0.3,0.4-0.4,0.6C8.2,17.6,8,17.1,7.9,16.6z M9.2,21.4c-0.2-0.9-0.4-1.7-0.7-2.6c0.7,0.5,1.4,1,2.2,1.5
		C10.2,20.7,9.7,21.1,9.2,21.4z M18,23.1c-2.5-1.7-4.9-3.3-7.3-5c3.4-3.2,6.7-6.5,10-9.7c0,0,0,0,0.1,0C19.9,13.3,19,18.2,18,23.1z"
		/>
	<g>
		<path class="st0" d="M31.5,3.6c0,0.3-0.1,0.5-0.2,0.6c-0.2,0.1-0.4,0.2-0.8,0.2l-0.4,0l0-1.5l0.3,0c0.4,0,0.6,0.1,0.8,0.2
			C31.4,3.2,31.5,3.4,31.5,3.6z"/>
	</g>
</g>
</svg>
