<?xml version="1.0" encoding="utf-8"?>
<!-- Generator: Adobe Illustrator 22.0.1, SVG Export Plug-In . SVG Version: 6.00 Build 0)  -->
<svg version="1.1" id="Layer_1" xmlns="http://www.w3.org/2000/svg" xmlns:xlink="http://www.w3.org/1999/xlink" x="0px" y="0px"
	 viewBox="0 0 24.2 21.7" style="enable-background:new 0 0 24.2 21.7;" xml:space="preserve">
<style type="text/css">
	.st0{fill:none;}
	.st1{fill:#FFFFFF;}
	.st2{fill:none;stroke:#FFFFFF;stroke-width:0;stroke-linecap:round;stroke-linejoin:round;}
</style>
<path class="st1" d="M24.1,0.5C24.1,0.5,24.1,0.5,24.1,0.5c-0.3-0.5-0.7-0.6-1.3-0.4C22,0.4,21.2,0.7,20.5,1
	C13.9,3.6,7.4,6.2,0.8,8.9C0.6,9,0.3,9.1,0.2,9.3c0,0,0,0,0,0c0,0-0.4,0.7,0.1,1.2c0,0,0,0,0,0c0.2,0.2,0.4,0.3,0.7,0.4
	c0,0,0.1,0,0.1,0c0,0,0,0,0,0c1.7,0.7,3.5,1.3,5.2,2c0.2,0.1,0.3,0.2,0.3,0.3C7,15.2,7.5,17.1,8,19c0.2,0.9,0.9,1.2,1.7,0.6
	c1-0.7,1.9-1.4,2.9-2.1c0.2-0.1,0.3-0.1,0.5,0c1.9,1.3,3.8,2.6,5.7,3.9c0.5,0.4,1,0.3,1.4-0.1c0.1-0.2,0.2-0.4,0.3-0.6
	c0.5-2.5,0.9-4.9,1.4-7.4c0.7-3.9,1.5-7.9,2.2-11.8c0,0,0,0,0,0C24.2,0.8,24.1,0.5,24.1,0.5z M8.3,12.3c-0.1-0.6-0.4-0.9-1-1.1
	C6.2,10.8,5.1,10.4,4,10c-0.1,0-0.2-0.1-0.4-0.2c5.1-2,10.2-4.1,15.3-6.1c0,0,0,0,0,0c0,0-0.1,0.1-0.1,0.1c-3.2,3.1-6.4,6.2-9.7,9.3
	c-0.2,0.2-0.3,0.4-0.5,0.6C8.5,13.3,8.4,12.8,8.3,12.3z M9.6,17.4c-0.2-0.9-0.5-1.8-0.7-2.7c0.8,0.5,1.5,1,2.3,1.5
	C10.6,16.6,10.1,17,9.6,17.4z M18.8,19.1c-2.6-1.7-5.1-3.5-7.6-5.2c3.5-3.4,7-6.7,10.5-10.1c0,0,0,0,0.1,0
	C20.7,8.9,19.8,14,18.8,19.1z"/>
</svg>
