<svg id="Layer_1" data-name="Layer 1" xmlns="http://www.w3.org/2000/svg" viewBox="0 0 38 25.6"><defs><style>.cls-1{fill:#fff;}</style></defs><title>Монтажная область 1</title><path class="cls-1" d="M37,10.11,24.51,10a1,1,0,0,0-1,1l-.11,8.67a1,1,0,0,0,1,1l12.48.11a1,1,0,0,0,1-1L38,11.13A1,1,0,0,0,37,10.11Zm-7.47,8.45-1.34-2.48h-.56v2.48H26.41V12.14h1.67a2.3,2.3,0,0,1,1.67.45,1.62,1.62,0,0,1,.56,1.46,1.75,1.75,0,0,1-1,1.69L31,18.56Zm5.91-2.37a2.89,2.89,0,0,1-.56,1.8,2,2,0,0,1-1.67.68h0c-1,0-2.12-.45-2.12-2.48V12.14h1.23v3.94c0,1.13.56,1.35,1,1.35h0c.45,0,.89-.11.89-1.35V12.14h1.23Zm-6.58-2.7a1.43,1.43,0,0,0-.89-.23h-.33V15h.45a1.71,1.71,0,0,0,.89-.23,1,1,0,0,0,.22-.68A2.47,2.47,0,0,0,28.86,13.49Z"/><path class="cls-1" d="M25.8,2.9h0a1,1,0,0,0-1.34-.45c-.78.33-1.68.67-2.46,1L.89,11.81c-.22.11-.56.22-.67.45h0s-.45.78.11,1.23h0a1.8,1.8,0,0,0,.78.45h.11c1.9.67,3.69,1.45,5.59,2.12q.34.17.34.33c.56,2.12,1.12,4.12,1.68,6.24a1,1,0,0,0,1.79.67c1-.78,2-1.45,3.13-2.23a.51.51,0,0,1,.56,0c2,1.45,4.13,2.78,6.14,4.12a1,1,0,0,0,1.45-.11,1.58,1.58,0,0,0,.22-.67c.56-2.67,1-5.23,1.56-7.91C24.46,12.26,25.24,8,26.13,3.9h0A1.68,1.68,0,0,0,25.8,2.9Zm-17,12.7a1.61,1.61,0,0,0-1-1.23c-1.23-.45-2.35-.89-3.57-1.34-.11,0-.22-.11-.45-.22,5.47-2.23,10.95-4.34,16.42-6.46h0l-.11.11-10.39,10a2.33,2.33,0,0,0-.45.67C9.15,16.71,8.93,16.15,8.82,15.6Zm1.45,5.35A27.82,27.82,0,0,0,9.49,18c.78.56,1.56,1.11,2.46,1.67A16,16,0,0,1,10.27,20.94Zm9.83,1.89c-2.79-1.89-5.47-3.68-8.15-5.57,3.8-3.56,7.48-7.24,11.17-10.8h.11C22.22,11.92,21.22,17.38,20.1,22.84Z"/></svg>